<?xml version="1.0" encoding="UTF-8"?>
<svg width="1200px" height="620px" viewBox="0 0 1200 620" version="1.1" xmlns="http://www.w3.org/2000/svg" xmlns:xlink="http://www.w3.org/1999/xlink">
    <title>guards-social-cover</title>
    <defs>
        <linearGradient x1="100%" y1="46.6940831%" x2="0%" y2="53.3059169%" id="linearGradient-1">
            <stop stop-color="#32C5FF" offset="0%"></stop>
            <stop stop-color="#B620E0" offset="51.2583893%"></stop>
            <stop stop-color="#F7B500" offset="100%"></stop>
        </linearGradient>
    </defs>
    <g id="guards-social-cover" stroke="none" stroke-width="1" fill="none" fill-rule="evenodd">
        <rect fill="#FFFFFF" x="0" y="0" width="1200" height="620"></rect>
        <path d="M304.4,401.8 C324.666667,401.8 340.1,395.766667 350.7,383.7 C361.3,371.633333 366.6,353.933333 366.6,330.6 L366.6,330.6 L366.6,254.4 L324.4,254.4 L324.4,277.6 C322.533333,270.533333 318.566667,264.9 312.5,260.7 C306.433333,256.5 299.333333,254.4 291.2,254.4 C282.4,254.4 274.3,256.666667 266.9,261.2 C259.5,265.733333 253.666667,271.9 249.4,279.7 C245.133333,287.5 243,296.066667 243,305.4 C243,314.6 245.166667,323.066667 249.5,330.8 C253.833333,338.533333 259.7,344.666667 267.1,349.2 C274.5,353.733333 282.6,356 291.4,356 C307.533333,356 319.533333,350.466667 327.4,339.4 C326.6,350.866667 324.066667,359.033333 319.8,363.9 C315.533333,368.766667 309.266667,371.2 301,371.2 C296.6,371.2 291.8,370.8 286.6,370 L286.6,370 L283.4,399.6 C290.066667,401.066667 297.066667,401.8 304.4,401.8 Z M304.4,326 C298.933333,326 294.266667,324.033333 290.4,320.1 C286.533333,316.166667 284.6,311.466667 284.6,306 C284.6,300.533333 286.533333,295.833333 290.4,291.9 C294.266667,287.966667 298.933333,286 304.4,286 C309.6,286 314.166667,287.933333 318.1,291.8 C322.033333,295.666667 324.133333,300.133333 324.4,305.2 L324.4,305.2 L324.4,306.8 C324.133333,312 322.066667,316.5 318.2,320.3 C314.333333,324.1 309.733333,326 304.4,326 Z M440,357.6 C450.4,357.6 459.6,355.733333 467.6,352 C475.6,348.266667 481.833333,343.033333 486.3,336.3 C490.766667,329.566667 493,321.8 493,313 L493,313 L493,255.8 L452.6,255.8 L452.6,312.4 C452.6,316.8 451.433333,320.233333 449.1,322.7 C446.766667,325.166667 443.8,326.4 440.2,326.4 C436.466667,326.4 433.366667,325.166667 430.9,322.7 C428.433333,320.233333 427.2,316.8 427.2,312.4 L427.2,312.4 L427.2,255.8 L386,255.8 L386,313 C386,321.666667 388.266667,329.4 392.8,336.2 C397.333333,343 403.7,348.266667 411.9,352 C420.1,355.733333 429.466667,357.6 440,357.6 Z M556.6,357.6 C571.8,357.6 582.733333,350.866667 589.4,337.4 L589.4,337.4 L589.4,356 L631.4,356 L631.4,254.4 L589.4,254.4 L589.4,277.6 C586.333333,269.866667 581.833333,264.066667 575.9,260.2 C569.966667,256.333333 563.533333,254.4 556.6,254.4 C548.066667,254.4 540,256.6 532.4,261 C524.8,265.4 518.733333,271.5 514.2,279.3 C509.666667,287.1 507.4,295.8 507.4,305.4 C507.4,315.133333 509.666667,323.966667 514.2,331.9 C518.733333,339.833333 524.766667,346.1 532.3,350.7 C539.833333,355.3 547.933333,357.6 556.6,357.6 Z M569.6,326 C564.133333,326 559.4,324.066667 555.4,320.2 C551.4,316.333333 549.4,311.6 549.4,306 C549.4,300.533333 551.366667,295.833333 555.3,291.9 C559.233333,287.966667 564,286 569.6,286 C574.666667,286 579.166667,287.866667 583.1,291.6 C587.033333,295.333333 589.133333,299.866667 589.4,305.2 L589.4,305.2 L589.4,306.8 C589.133333,312 587.1,316.5 583.3,320.3 C579.5,324.1 574.933333,326 569.6,326 Z M693.8,356 L693.8,304 C693.8,298.133333 696.766667,293.833333 702.7,291.1 C708.633333,288.366667 717.933333,287 730.6,287 L730.6,287 L724.8,254.4 C717.733333,254.4 711.566667,256.3 706.3,260.1 C701.033333,263.9 696.866667,269.733333 693.8,277.6 L693.8,277.6 L693.8,257.2 L651.6,257.2 L651.6,356 L693.8,356 Z M784.6,357.6 C800.333333,357.6 811.333333,350.866667 817.6,337.4 L817.6,337.4 L817.6,356 L859.8,356 L859.8,218 L817.6,224.2 L817.6,274.6 C814.266667,267.533333 809.9,262.4 804.5,259.2 C799.1,256 792.533333,254.4 784.8,254.4 C776.266667,254.4 768.233333,256.666667 760.7,261.2 C753.166667,265.733333 747.166667,271.966667 742.7,279.9 C738.233333,287.833333 736,296.533333 736,306 C736,314.933333 738.133333,323.366667 742.4,331.3 C746.666667,339.233333 752.5,345.6 759.9,350.4 C767.3,355.2 775.533333,357.6 784.6,357.6 Z M797.8,326 C792.466667,326 787.833333,324.066667 783.9,320.2 C779.966667,316.333333 778,311.6 778,306 C778,300.533333 779.9,295.833333 783.7,291.9 C787.5,287.966667 792.2,286 797.8,286 C803,286 807.6,287.9 811.6,291.7 C815.6,295.5 817.6,300 817.6,305.2 L817.6,305.2 L817.6,306 C817.6,311.333333 815.7,316 811.9,320 C808.1,324 803.4,326 797.8,326 Z M914.8,357.6 C928.666667,357.6 939.3,354.566667 946.7,348.5 C954.1,342.433333 957.8,334.133333 957.8,323.6 C957.8,314.4 954.8,307.133333 948.8,301.8 C942.8,296.466667 933.733333,292.733333 921.6,290.6 C914.933333,289.4 911.6,287.333333 911.6,284.4 C911.6,282.8 912.466667,281.533333 914.2,280.6 C915.933333,279.666667 919.066667,279.2 923.6,279.2 C926.666667,279.2 930.5,279.6 935.1,280.4 C939.7,281.2 943.933333,282.333333 947.8,283.8 L947.8,283.8 L952,260 C947.866667,258 943.3,256.566667 938.3,255.7 C933.3,254.833333 927.333333,254.4 920.4,254.4 C906.8,254.4 896.066667,257.2 888.2,262.8 C880.333333,268.4 876.133333,276.466667 875.6,287 C875.6,296.333333 878.033333,303.533333 882.9,308.6 C887.766667,313.666667 895.733333,317.266667 906.8,319.4 C912.133333,320.333333 915.766667,321.4 917.7,322.6 C919.633333,323.8 920.6,325.333333 920.6,327.2 C920.6,330.933333 917.266667,332.8 910.6,332.8 C901.533333,332.8 892.2,331.066667 882.6,327.6 L882.6,327.6 L878,351.4 C888.533333,355.533333 900.8,357.6 914.8,357.6 Z" id="guards" fill="url(#linearGradient-1)" fill-rule="nonzero"></path>
    </g>
</svg>